<svg width="861.275146484375px" height="129.44000549316405px" xmlns="http://www.w3.org/2000/svg" viewBox="-180.6375732421875 10.279997253417974 861.275146484375 129.44000549316405" style="background: rgba(0, 0, 0, 0);" preserveAspectRatio="xMidYMid"><defs><filter id="editing-extrusion" x="-100%" y="-100%" width="300%" height="300%"><feFlood result="color1" flood-color="#444"></feFlood><feConvolveMatrix order="8,8" divisor="1" kernelMatrix="1 0 0 0 0 0 0 0 0 1 0 0 0 0 0 0 0 0 1 0 0 0 0 0 0 0 0 1 0 0 0 0 0 0 0 0 1 0 0 0 0 0 0 0 0 1 0 0 0 0 0 0 0 0 1 0 0 0 0 0 0 0 0 1" in="SourceAlpha" result="extrude"></feConvolveMatrix><feComposite in="color1" in2="extrude" result="comp-extrude" operator="in"></feComposite><feOffset dx="4" dy="4" in="comp-extrude" result="offset-extrude"></feOffset><feMerge><feMergeNode in="offset-extrude"></feMergeNode><feMergeNode in="SourceGraphic"></feMergeNode></feMerge></filter></defs><g filter="url(#editing-extrusion)"><g transform="translate(-60.52495360374451, 107.00000381469727)"><path d="M49.34-38.40L49.34-38.40L49.34-36.61L44.16-36.61L44.16-38.40L44.16-38.40Q44.16-39.42 43.42-40.16L43.42-40.16L43.42-40.16Q42.69-40.90 41.66-40.90L41.66-40.90L10.94-40.90L10.94-40.90Q9.92-40.90 9.18-40.16L9.18-40.16L9.18-40.16Q8.45-39.42 8.45-38.40L8.45-38.40L8.45-28.10L8.45-28.10Q8.45-27.07 9.18-26.37L9.18-26.37L9.18-26.37Q9.92-25.66 10.94-25.66L10.94-25.66L41.66-25.66L41.66-25.66Q44.86-25.66 47.10-23.42L47.10-23.42L47.10-23.42Q49.34-21.18 49.34-17.98L49.34-17.98L49.34-7.68L49.34-7.68Q49.34-4.48 47.10-2.24L47.10-2.24L47.10-2.24Q44.86 0 41.66 0L41.66 0L10.94 0L10.94 0Q7.74 0 5.50-2.24L5.50-2.24L5.50-2.24Q3.26-4.48 3.26-7.68L3.26-7.68L3.26-9.47L8.45-9.47L8.45-7.68L8.45-7.68Q8.45-6.66 9.18-5.92L9.18-5.92L9.18-5.92Q9.92-5.18 10.94-5.18L10.94-5.18L41.66-5.18L41.66-5.18Q42.69-5.18 43.42-5.92L43.42-5.92L43.42-5.92Q44.16-6.66 44.16-7.68L44.16-7.68L44.16-17.98L44.16-17.98Q44.16-19.01 43.42-19.71L43.42-19.71L43.42-19.71Q42.69-20.42 41.66-20.42L41.66-20.42L10.94-20.42L10.94-20.42Q7.74-20.42 5.50-22.66L5.50-22.66L5.50-22.66Q3.26-24.90 3.26-28.10L3.26-28.10L3.26-38.40L3.26-38.40Q3.26-41.60 5.50-43.84L5.50-43.84L5.50-43.84Q7.74-46.08 10.94-46.08L10.94-46.08L41.66-46.08L41.66-46.08Q44.86-46.08 47.10-43.84L47.10-43.84L47.10-43.84Q49.34-41.60 49.34-38.40ZM88.58-7.74L88.58-37.12L93.82-37.12L93.82-7.74L93.82-7.74Q93.82-4.54 91.55-2.27L91.55-2.27L91.55-2.27Q89.28 0 86.02 0L86.02 0L63.74 0L63.74 0Q60.54 0 58.27-2.27L58.27-2.27L58.27-2.27Q56.00-4.54 56.00-7.74L56.00-7.74L56.00-37.12L61.25-37.12L61.25-7.74L61.25-7.74Q61.25-6.72 61.98-5.98L61.98-5.98L61.98-5.98Q62.72-5.25 63.74-5.25L63.74-5.25L86.02-5.25L86.02-5.25Q87.04-5.25 87.81-5.98L87.81-5.98L87.81-5.98Q88.58-6.72 88.58-7.74L88.58-7.74ZM108.16-37.12L108.16-37.12L129.02-37.12L129.02-31.87L108.16-31.87L108.16-31.87Q107.14-31.87 106.40-31.14L106.40-31.14L106.40-31.14Q105.66-30.40 105.66-29.38L105.66-29.38L105.66 0L100.42 0L100.42-29.38L100.42-29.38Q100.42-32.58 102.69-34.85L102.69-34.85L102.69-34.85Q104.96-37.12 108.16-37.12ZM170.30-36.99L170.30 6.91L170.30 6.91Q170.30 10.18 168.06 12.45L168.06 12.45L168.06 12.45Q165.82 14.72 162.56 14.72L162.56 14.72L139.39 14.72L139.39 9.41L162.56 9.41L162.56 9.41Q163.58 9.41 164.32 8.67L164.32 8.67L164.32 8.67Q165.06 7.94 165.06 6.91L165.06 6.91L165.06 0L140.29 0L140.29 0Q137.09 0 134.82-2.27L134.82-2.27L134.82-2.27Q132.54-4.54 132.54-7.74L132.54-7.74L132.54-36.99L137.79-36.99L137.79-7.74L137.79-7.74Q137.79-6.72 138.53-5.98L138.53-5.98L138.53-5.98Q139.26-5.25 140.29-5.25L140.29-5.25L162.56-5.25L162.56-5.25Q163.58-5.25 164.32-5.98L164.32-5.98L164.32-5.98Q165.06-6.72 165.06-7.74L165.06-7.74L165.06-36.99L170.30-36.99ZM175.55-37.12L205.57-37.12L205.57-37.12Q208.83-37.12 211.10-34.85L211.10-34.85L211.10-34.85Q213.38-32.58 213.38-29.38L213.38-29.38L213.38 0L183.30 0L183.30 0Q180.10 0 177.82-2.27L177.82-2.27L177.82-2.27Q175.55-4.54 175.55-7.74L175.55-7.74L175.55-21.18L208.06-21.18L208.06-29.38L208.06-29.38Q208.06-30.40 207.33-31.14L207.33-31.14L207.33-31.14Q206.59-31.87 205.57-31.87L205.57-31.87L175.55-31.87L175.55-37.12ZM183.30-5.25L208.06-5.25L208.06-15.94L180.80-15.94L180.80-7.74L180.80-7.74Q180.80-6.72 181.54-5.98L181.54-5.98L181.54-5.98Q182.27-5.25 183.30-5.25L183.30-5.25ZM283.39-38.40L283.39-38.40L283.39-36.61L278.21-36.61L278.21-38.40L278.21-38.40Q278.21-39.42 277.47-40.16L277.47-40.16L277.47-40.16Q276.74-40.90 275.71-40.90L275.71-40.90L244.99-40.90L244.99-40.90Q243.97-40.90 243.23-40.16L243.23-40.16L243.23-40.16Q242.50-39.42 242.50-38.40L242.50-38.40L242.50-28.10L242.50-28.10Q242.50-27.07 243.23-26.37L243.23-26.37L243.23-26.37Q243.97-25.66 244.99-25.66L244.99-25.66L275.71-25.66L275.71-25.66Q278.91-25.66 281.15-23.42L281.15-23.42L281.15-23.42Q283.39-21.18 283.39-17.98L283.39-17.98L283.39-7.68L283.39-7.68Q283.39-4.48 281.15-2.24L281.15-2.24L281.15-2.24Q278.91 0 275.71 0L275.71 0L244.99 0L244.99 0Q241.79 0 239.55-2.24L239.55-2.24L239.55-2.24Q237.31-4.48 237.31-7.68L237.31-7.68L237.31-9.47L242.50-9.47L242.50-7.68L242.50-7.68Q242.50-6.66 243.23-5.92L243.23-5.92L243.23-5.92Q243.97-5.18 244.99-5.18L244.99-5.18L275.71-5.18L275.71-5.18Q276.74-5.18 277.47-5.92L277.47-5.92L277.47-5.92Q278.21-6.66 278.21-7.68L278.21-7.68L278.21-17.98L278.21-17.98Q278.21-19.01 277.47-19.71L277.47-19.71L277.47-19.71Q276.74-20.42 275.71-20.42L275.71-20.42L244.99-20.42L244.99-20.42Q241.79-20.42 239.55-22.66L239.55-22.66L239.55-22.66Q237.31-24.90 237.31-28.10L237.31-28.10L237.31-38.40L237.31-38.40Q237.31-41.60 239.55-43.84L239.55-43.84L239.55-43.84Q241.79-46.08 244.99-46.08L244.99-46.08L275.71-46.08L275.71-46.08Q278.91-46.08 281.15-43.84L281.15-43.84L281.15-43.84Q283.39-41.60 283.39-38.40ZM295.23 0L289.98 0L289.98-37.12L295.23-37.12L295.23 0ZM289.98-44.03L289.98-49.28L295.23-49.28L295.23-44.03L289.98-44.03ZM324.54-5.12L341.95-37.12L348.10-37.12L327.55 0L321.47 0L300.99-37.12L307.14-37.12L324.54-5.12ZM353.54-37.12L383.55-37.12L383.55-37.12Q386.82-37.12 389.09-34.85L389.09-34.85L389.09-34.85Q391.36-32.58 391.36-29.38L391.36-29.38L391.36 0L361.28 0L361.28 0Q358.08 0 355.81-2.27L355.81-2.27L355.81-2.27Q353.54-4.54 353.54-7.74L353.54-7.74L353.54-21.18L386.05-21.18L386.05-29.38L386.05-29.38Q386.05-30.40 385.31-31.14L385.31-31.14L385.31-31.14Q384.58-31.87 383.55-31.87L383.55-31.87L353.54-31.87L353.54-37.12ZM361.28-5.25L386.05-5.25L386.05-15.94L358.78-15.94L358.78-7.74L358.78-7.74Q358.78-6.72 359.52-5.98L359.52-5.98L359.52-5.98Q360.26-5.25 361.28-5.25L361.28-5.25ZM413.57-21.18L428.16-37.12L435.07-37.12L418.24-18.56L435.01 0L428.16 0L413.57-15.94L403.33-15.94L403.33 0L398.08 0L398.08-49.28L403.33-49.28L403.33-21.18L413.57-21.18ZM471.94-7.74L471.94-37.12L477.18-37.12L477.18-7.74L477.18-7.74Q477.18-4.54 474.91-2.27L474.91-2.27L474.91-2.27Q472.64 0 469.38 0L469.38 0L447.10 0L447.10 0Q443.90 0 441.63-2.27L441.63-2.27L441.63-2.27Q439.36-4.54 439.36-7.74L439.36-7.74L439.36-37.12L444.61-37.12L444.61-7.74L444.61-7.74Q444.61-6.72 445.34-5.98L445.34-5.98L445.34-5.98Q446.08-5.25 447.10-5.25L447.10-5.25L469.38-5.25L469.38-5.25Q470.40-5.25 471.17-5.98L471.17-5.98L471.17-5.98Q471.94-6.72 471.94-7.74L471.94-7.74ZM482.62-37.12L531.65-37.12L531.65-37.12Q534.91-37.12 537.15-34.85L537.15-34.85L537.15-34.85Q539.39-32.58 539.39-29.38L539.39-29.38L539.39 0L534.21 0L534.21-29.38L534.21-29.38Q534.21-30.40 533.44-31.14L533.44-31.14L533.44-31.14Q532.67-31.87 531.65-31.87L531.65-31.87L516.22-31.87L516.22-31.87Q515.20-31.87 514.46-31.14L514.46-31.14L514.46-31.14Q513.73-30.40 513.73-29.38L513.73-29.38L513.73 0L508.42 0L508.42-29.38L508.42-29.38Q508.42-30.40 507.68-31.14L507.68-31.14L507.68-31.14Q506.94-31.87 505.92-31.87L505.92-31.87L490.43-31.87L490.43-31.87Q489.41-31.87 488.67-31.14L488.67-31.14L488.67-31.14Q487.94-30.40 487.94-29.38L487.94-29.38L487.94 0L482.62 0L482.62-37.12ZM545.09-37.12L575.10-37.12L575.10-37.12Q578.37-37.12 580.64-34.85L580.64-34.85L580.64-34.85Q582.91-32.58 582.91-29.38L582.91-29.38L582.91 0L552.83 0L552.83 0Q549.63 0 547.36-2.27L547.36-2.27L547.36-2.27Q545.09-4.54 545.09-7.74L545.09-7.74L545.09-21.18L577.60-21.18L577.60-29.38L577.60-29.38Q577.60-30.40 576.86-31.14L576.86-31.14L576.86-31.14Q576.13-31.87 575.10-31.87L575.10-31.87L545.09-31.87L545.09-37.12ZM552.83-5.25L577.60-5.25L577.60-15.94L550.34-15.94L550.34-7.74L550.34-7.74Q550.34-6.72 551.07-5.98L551.07-5.98L551.07-5.98Q551.81-5.25 552.83-5.25L552.83-5.25ZM596.93-37.12L596.93-37.12L617.79-37.12L617.79-31.87L596.93-31.87L596.93-31.87Q595.90-31.87 595.17-31.14L595.17-31.14L595.17-31.14Q594.43-30.40 594.43-29.38L594.43-29.38L594.43 0L589.18 0L589.18-29.38L589.18-29.38Q589.18-32.58 591.46-34.85L591.46-34.85L591.46-34.85Q593.73-37.12 596.93-37.12Z" fill="#ccc"></path></g></g><style>text {
  font-size: 64px;
  font-family: Arial Black;
  dominant-baseline: central;
  text-anchor: middle;
}</style></svg>